<svg xmlns="http://www.w3.org/2000/svg" xmlns:xlink="http://www.w3.org/1999/xlink" width="500" zoomAndPan="magnify" viewBox="0 0 375 374.999991" height="500" preserveAspectRatio="xMidYMid meet" version="1.0"><defs><g/><clipPath id="19f9ac39e8"><path d="M 150.070312 125 L 225 125 L 225 199.988281 L 150.070312 199.988281 Z M 150.070312 125 " clip-rule="nonzero"/></clipPath></defs><rect x="-37.5" width="450" fill="#ffffff" y="-37.499999" height="449.999989" fill-opacity="1"/><rect x="-37.5" width="450" fill="#ffffff" y="-37.499999" height="449.999989" fill-opacity="1"/><rect x="-37.5" width="450" fill="#3f617c" y="-37.499999" height="449.999989" fill-opacity="1"/><g clip-path="url(#19f9ac39e8)"><path fill="#f9fdff" d="M 208.058594 181.578125 C 208.375 180.761719 208.265625 179.808594 207.691406 179.082031 L 207.445312 178.765625 L 208.472656 177.257812 C 209.097656 176.339844 208.984375 175.101562 208.195312 174.316406 L 196.425781 162.546875 L 213.90625 145.070312 L 216.578125 147.742188 C 217.1875 148.351562 218.167969 148.351562 218.773438 147.742188 C 219.378906 147.132812 219.378906 146.152344 218.773438 145.542969 L 216.101562 142.871094 L 213.597656 140.371094 L 220.917969 133.050781 L 222.324219 134.457031 C 222.894531 135.035156 223.828125 135.085938 224.429688 134.539062 C 225.070312 133.953125 225.085938 132.964844 224.484375 132.355469 L 217.757812 125.632812 C 217.148438 125.027344 216.160156 125.046875 215.574219 125.6875 C 215.03125 126.285156 215.082031 127.21875 215.65625 127.792969 L 217.0625 129.199219 L 209.742188 136.515625 L 207.242188 134.011719 L 204.570312 131.339844 C 203.960938 130.734375 202.980469 130.734375 202.375 131.339844 C 201.765625 131.949219 201.765625 132.929688 202.375 133.539062 L 205.046875 136.210938 L 187.570312 153.6875 L 170.09375 136.210938 L 172.765625 133.539062 C 173.375 132.929688 173.375 131.949219 172.765625 131.339844 C 172.15625 130.734375 171.175781 130.734375 170.566406 131.339844 L 167.894531 134.011719 L 165.394531 136.515625 L 158.074219 129.199219 L 159.480469 127.792969 C 160.058594 127.21875 160.109375 126.285156 159.5625 125.6875 C 158.976562 125.046875 157.988281 125.027344 157.378906 125.632812 L 150.65625 132.355469 C 150.050781 132.964844 150.070312 133.953125 150.710938 134.539062 C 151.308594 135.085938 152.242188 135.035156 152.816406 134.457031 L 154.222656 133.050781 L 161.539062 140.371094 L 159.035156 142.871094 L 156.363281 145.542969 C 155.757812 146.152344 155.757812 147.132812 156.363281 147.742188 C 156.972656 148.351562 157.953125 148.351562 158.5625 147.742188 L 161.234375 145.070312 L 178.710938 162.546875 L 166.941406 174.316406 C 166.15625 175.101562 166.039062 176.339844 166.667969 177.257812 L 167.691406 178.765625 L 167.445312 179.082031 C 166.875 179.808594 166.765625 180.761719 167.078125 181.578125 L 150.214844 199.898438 L 168.535156 183.035156 C 169.355469 183.351562 170.308594 183.242188 171.035156 182.667969 L 171.351562 182.421875 L 172.855469 183.449219 C 173.777344 184.074219 175.011719 183.960938 175.800781 183.171875 L 187.570312 171.402344 L 199.339844 183.171875 C 200.125 183.960938 201.363281 184.074219 202.28125 183.449219 L 203.789062 182.421875 L 204.105469 182.667969 C 204.832031 183.242188 205.785156 183.351562 206.601562 183.035156 L 224.921875 199.898438 Z M 200.886719 143.246094 L 206.867188 149.230469 L 205.558594 150.542969 L 199.570312 144.554688 Z M 200.40625 149.367188 L 203.566406 152.53125 L 202.257812 153.84375 L 199.097656 150.679688 Z M 194.285156 149.847656 L 200.269531 155.832031 L 198.953125 157.144531 L 192.972656 151.160156 Z M 193.804688 155.972656 L 196.96875 159.136719 L 195.652344 160.445312 L 192.492188 157.28125 Z M 168.269531 149.230469 L 174.253906 143.246094 L 175.566406 144.554688 L 169.578125 150.542969 Z M 171.570312 152.53125 L 174.734375 149.367188 L 176.042969 150.679688 L 172.878906 153.84375 Z M 174.871094 155.832031 L 180.855469 149.847656 L 182.167969 151.160156 L 176.183594 157.144531 Z M 178.171875 159.136719 L 181.335938 155.972656 L 182.648438 157.28125 L 179.484375 160.445312 Z M 179.148438 176.953125 L 173.164062 170.96875 L 174.476562 169.65625 L 180.460938 175.636719 Z M 182.453125 173.652344 L 179.289062 170.488281 L 180.597656 169.175781 L 183.761719 172.335938 Z M 185.753906 170.351562 L 179.765625 164.363281 L 180.148438 163.984375 L 186.132812 169.964844 Z M 188.84375 166.410156 L 186.304688 166.410156 L 186.304688 163.78125 L 183.667969 163.78125 L 183.667969 161.292969 L 186.304688 161.292969 L 186.304688 158.683594 L 188.84375 158.683594 L 188.84375 161.292969 L 191.46875 161.292969 L 191.46875 163.78125 L 188.84375 163.78125 Z M 189.007812 169.964844 L 194.988281 163.984375 L 195.375 164.363281 L 189.386719 170.351562 Z M 191.378906 172.335938 L 194.542969 169.175781 L 195.851562 170.488281 L 192.6875 173.652344 Z M 195.992188 176.953125 L 194.679688 175.636719 L 200.660156 169.65625 L 201.976562 170.96875 L 195.992188 176.953125 " fill-opacity="1" fill-rule="nonzero"/></g><path fill="#f9fdff" d="M 75.597656 219.765625 L 305.890625 219.765625 L 305.890625 220.496094 L 75.597656 220.496094 Z M 75.597656 219.765625 " fill-opacity="1" fill-rule="nonzero"/><g fill="#f9fdff" fill-opacity="1"><g transform="translate(75.599515, 219.030919)"><g><path d="M 1.65625 -6.109375 L 1.65625 0 L 0.65625 0 L 0.65625 -6.109375 Z M 1.65625 -6.109375 "/></g></g></g><g fill="#f9fdff" fill-opacity="1"><g transform="translate(84.411935, 219.030919)"><g><path d="M 5.6875 0 L 4.6875 0 L 1.65625 -4.5625 L 1.65625 0 L 0.65625 0 L 0.65625 -6.125 L 1.65625 -6.125 L 4.6875 -1.5625 L 4.6875 -6.125 L 5.6875 -6.125 Z M 5.6875 0 "/></g></g></g><g fill="#f9fdff" fill-opacity="1"><g transform="translate(97.243601, 219.030919)"><g><path d="M 4 -6.109375 L 4 -1.703125 C 4 -1.160156 3.832031 -0.726562 3.5 -0.40625 C 3.164062 -0.09375 2.726562 0.0625 2.1875 0.0625 C 1.644531 0.0625 1.207031 -0.09375 0.875 -0.40625 C 0.550781 -0.726562 0.390625 -1.160156 0.390625 -1.703125 L 1.40625 -1.703125 C 1.40625 -1.429688 1.46875 -1.21875 1.59375 -1.0625 C 1.726562 -0.90625 1.925781 -0.828125 2.1875 -0.828125 C 2.445312 -0.828125 2.644531 -0.90625 2.78125 -1.0625 C 2.914062 -1.226562 2.984375 -1.441406 2.984375 -1.703125 L 2.984375 -6.109375 Z M 4 -6.109375 "/></g></g></g><g fill="#f9fdff" fill-opacity="1"><g transform="translate(108.694479, 219.030919)"><g><path d="M 1.65625 -5.296875 L 1.65625 -3.515625 L 3.78125 -3.515625 L 3.78125 -2.6875 L 1.65625 -2.6875 L 1.65625 -0.8125 L 4.03125 -0.8125 L 4.03125 0 L 0.65625 0 L 0.65625 -6.125 L 4.03125 -6.125 L 4.03125 -5.296875 Z M 1.65625 -5.296875 "/></g></g></g><g fill="#f9fdff" fill-opacity="1"><g transform="translate(119.793557, 219.030919)"><g><path d="M 0.328125 -3.0625 C 0.328125 -3.664062 0.460938 -4.203125 0.734375 -4.671875 C 1.015625 -5.148438 1.394531 -5.519531 1.875 -5.78125 C 2.351562 -6.050781 2.878906 -6.1875 3.453125 -6.1875 C 4.097656 -6.1875 4.675781 -6.023438 5.1875 -5.703125 C 5.695312 -5.390625 6.066406 -4.941406 6.296875 -4.359375 L 5.078125 -4.359375 C 4.921875 -4.679688 4.703125 -4.921875 4.421875 -5.078125 C 4.140625 -5.234375 3.816406 -5.3125 3.453125 -5.3125 C 3.046875 -5.3125 2.679688 -5.21875 2.359375 -5.03125 C 2.046875 -4.851562 1.800781 -4.59375 1.625 -4.25 C 1.445312 -3.914062 1.359375 -3.519531 1.359375 -3.0625 C 1.359375 -2.613281 1.445312 -2.21875 1.625 -1.875 C 1.800781 -1.539062 2.046875 -1.28125 2.359375 -1.09375 C 2.679688 -0.90625 3.046875 -0.8125 3.453125 -0.8125 C 3.816406 -0.8125 4.140625 -0.890625 4.421875 -1.046875 C 4.703125 -1.210938 4.921875 -1.457031 5.078125 -1.78125 L 6.296875 -1.78125 C 6.066406 -1.1875 5.695312 -0.734375 5.1875 -0.421875 C 4.675781 -0.109375 4.097656 0.046875 3.453125 0.046875 C 2.878906 0.046875 2.351562 -0.0820312 1.875 -0.34375 C 1.394531 -0.613281 1.015625 -0.984375 0.734375 -1.453125 C 0.460938 -1.929688 0.328125 -2.46875 0.328125 -3.0625 Z M 0.328125 -3.0625 "/></g></g></g><g fill="#f9fdff" fill-opacity="1"><g transform="translate(133.082561, 219.030919)"><g><path d="M 4.609375 -6.109375 L 4.609375 -5.296875 L 2.984375 -5.296875 L 2.984375 0 L 1.984375 0 L 1.984375 -5.296875 L 0.34375 -5.296875 L 0.34375 -6.109375 Z M 4.609375 -6.109375 "/></g></g></g><g fill="#f9fdff" fill-opacity="1"><g transform="translate(144.533442, 219.030919)"><g><path d="M 1.65625 -6.109375 L 1.65625 0 L 0.65625 0 L 0.65625 -6.109375 Z M 1.65625 -6.109375 "/></g></g></g><g fill="#f9fdff" fill-opacity="1"><g transform="translate(153.345865, 219.030919)"><g><path d="M 3.453125 0.0625 C 2.878906 0.0625 2.351562 -0.0664062 1.875 -0.328125 C 1.394531 -0.597656 1.015625 -0.972656 0.734375 -1.453125 C 0.460938 -1.929688 0.328125 -2.46875 0.328125 -3.0625 C 0.328125 -3.664062 0.460938 -4.203125 0.734375 -4.671875 C 1.015625 -5.148438 1.394531 -5.519531 1.875 -5.78125 C 2.351562 -6.050781 2.878906 -6.1875 3.453125 -6.1875 C 4.023438 -6.1875 4.550781 -6.050781 5.03125 -5.78125 C 5.507812 -5.519531 5.882812 -5.148438 6.15625 -4.671875 C 6.4375 -4.203125 6.578125 -3.664062 6.578125 -3.0625 C 6.578125 -2.46875 6.4375 -1.929688 6.15625 -1.453125 C 5.882812 -0.972656 5.507812 -0.597656 5.03125 -0.328125 C 4.550781 -0.0664062 4.023438 0.0625 3.453125 0.0625 Z M 3.453125 -0.8125 C 3.859375 -0.8125 4.21875 -0.898438 4.53125 -1.078125 C 4.84375 -1.265625 5.085938 -1.53125 5.265625 -1.875 C 5.453125 -2.21875 5.546875 -2.613281 5.546875 -3.0625 C 5.546875 -3.519531 5.453125 -3.914062 5.265625 -4.25 C 5.085938 -4.59375 4.84375 -4.851562 4.53125 -5.03125 C 4.21875 -5.21875 3.859375 -5.3125 3.453125 -5.3125 C 3.046875 -5.3125 2.679688 -5.21875 2.359375 -5.03125 C 2.046875 -4.851562 1.800781 -4.59375 1.625 -4.25 C 1.445312 -3.914062 1.359375 -3.519531 1.359375 -3.0625 C 1.359375 -2.613281 1.445312 -2.21875 1.625 -1.875 C 1.800781 -1.53125 2.046875 -1.265625 2.359375 -1.078125 C 2.679688 -0.898438 3.046875 -0.8125 3.453125 -0.8125 Z M 3.453125 -0.8125 "/></g></g></g><g fill="#f9fdff" fill-opacity="1"><g transform="translate(166.731615, 219.030919)"><g><path d="M 5.6875 0 L 4.6875 0 L 1.65625 -4.5625 L 1.65625 0 L 0.65625 0 L 0.65625 -6.125 L 1.65625 -6.125 L 4.6875 -1.5625 L 4.6875 -6.125 L 5.6875 -6.125 Z M 5.6875 0 "/></g></g></g><g fill="#f9fdff" fill-opacity="1"><g transform="translate(179.563284, 219.030919)"><g><path d="M 7.09375 -6.109375 L 7.09375 0 L 6.09375 0 L 6.09375 -4.1875 L 4.234375 0 L 3.53125 0 L 1.65625 -4.1875 L 1.65625 0 L 0.65625 0 L 0.65625 -6.109375 L 1.734375 -6.109375 L 3.890625 -1.3125 L 6.03125 -6.109375 Z M 7.09375 -6.109375 "/></g></g></g><g fill="#f9fdff" fill-opacity="1"><g transform="translate(193.810933, 219.030919)"><g><path d="M 4.34375 -1.25 L 1.78125 -1.25 L 1.34375 0 L 0.296875 0 L 2.484375 -6.125 L 3.65625 -6.125 L 5.84375 0 L 4.78125 0 Z M 4.0625 -2.0625 L 3.0625 -4.90625 L 2.0625 -2.0625 Z M 4.0625 -2.0625 "/></g></g></g><g fill="#f9fdff" fill-opacity="1"><g transform="translate(206.431529, 219.030919)"><g><path d="M 5.6875 0 L 4.6875 0 L 1.65625 -4.5625 L 1.65625 0 L 0.65625 0 L 0.65625 -6.125 L 1.65625 -6.125 L 4.6875 -1.5625 L 4.6875 -6.125 L 5.6875 -6.125 Z M 5.6875 0 "/></g></g></g><g fill="#f9fdff" fill-opacity="1"><g transform="translate(219.263198, 219.030919)"><g><path d="M 4.34375 -1.25 L 1.78125 -1.25 L 1.34375 0 L 0.296875 0 L 2.484375 -6.125 L 3.65625 -6.125 L 5.84375 0 L 4.78125 0 Z M 4.0625 -2.0625 L 3.0625 -4.90625 L 2.0625 -2.0625 Z M 4.0625 -2.0625 "/></g></g></g><g fill="#f9fdff" fill-opacity="1"><g transform="translate(231.883794, 219.030919)"><g><path d="M 5.078125 -4.359375 C 4.921875 -4.660156 4.703125 -4.890625 4.421875 -5.046875 C 4.140625 -5.203125 3.816406 -5.28125 3.453125 -5.28125 C 3.046875 -5.28125 2.679688 -5.1875 2.359375 -5 C 2.046875 -4.820312 1.800781 -4.566406 1.625 -4.234375 C 1.445312 -3.898438 1.359375 -3.507812 1.359375 -3.0625 C 1.359375 -2.625 1.445312 -2.238281 1.625 -1.90625 C 1.800781 -1.570312 2.046875 -1.3125 2.359375 -1.125 C 2.679688 -0.945312 3.046875 -0.859375 3.453125 -0.859375 C 3.992188 -0.859375 4.429688 -1.007812 4.765625 -1.3125 C 5.109375 -1.613281 5.320312 -2.023438 5.40625 -2.546875 L 3.109375 -2.546875 L 3.109375 -3.359375 L 6.46875 -3.359375 L 6.46875 -2.5625 C 6.40625 -2.09375 6.238281 -1.65625 5.96875 -1.25 C 5.695312 -0.851562 5.34375 -0.535156 4.90625 -0.296875 C 4.46875 -0.0664062 3.984375 0.046875 3.453125 0.046875 C 2.878906 0.046875 2.351562 -0.0820312 1.875 -0.34375 C 1.394531 -0.613281 1.015625 -0.984375 0.734375 -1.453125 C 0.460938 -1.929688 0.328125 -2.46875 0.328125 -3.0625 C 0.328125 -3.664062 0.460938 -4.203125 0.734375 -4.671875 C 1.015625 -5.148438 1.394531 -5.519531 1.875 -5.78125 C 2.351562 -6.050781 2.878906 -6.1875 3.453125 -6.1875 C 4.097656 -6.1875 4.675781 -6.023438 5.1875 -5.703125 C 5.695312 -5.390625 6.066406 -4.941406 6.296875 -4.359375 Z M 5.078125 -4.359375 "/></g></g></g><g fill="#f9fdff" fill-opacity="1"><g transform="translate(245.172799, 219.030919)"><g><path d="M 1.65625 -5.296875 L 1.65625 -3.515625 L 3.78125 -3.515625 L 3.78125 -2.6875 L 1.65625 -2.6875 L 1.65625 -0.8125 L 4.03125 -0.8125 L 4.03125 0 L 0.65625 0 L 0.65625 -6.125 L 4.03125 -6.125 L 4.03125 -5.296875 Z M 1.65625 -5.296875 "/></g></g></g><g fill="#f9fdff" fill-opacity="1"><g transform="translate(256.271879, 219.030919)"><g><path d="M 7.09375 -6.109375 L 7.09375 0 L 6.09375 0 L 6.09375 -4.1875 L 4.234375 0 L 3.53125 0 L 1.65625 -4.1875 L 1.65625 0 L 0.65625 0 L 0.65625 -6.109375 L 1.734375 -6.109375 L 3.890625 -1.3125 L 6.03125 -6.109375 Z M 7.09375 -6.109375 "/></g></g></g><g fill="#f9fdff" fill-opacity="1"><g transform="translate(270.519517, 219.030919)"><g><path d="M 1.65625 -5.296875 L 1.65625 -3.515625 L 3.78125 -3.515625 L 3.78125 -2.6875 L 1.65625 -2.6875 L 1.65625 -0.8125 L 4.03125 -0.8125 L 4.03125 0 L 0.65625 0 L 0.65625 -6.125 L 4.03125 -6.125 L 4.03125 -5.296875 Z M 1.65625 -5.296875 "/></g></g></g><g fill="#f9fdff" fill-opacity="1"><g transform="translate(281.618597, 219.030919)"><g><path d="M 5.6875 0 L 4.6875 0 L 1.65625 -4.5625 L 1.65625 0 L 0.65625 0 L 0.65625 -6.125 L 1.65625 -6.125 L 4.6875 -1.5625 L 4.6875 -6.125 L 5.6875 -6.125 Z M 5.6875 0 "/></g></g></g><g fill="#f9fdff" fill-opacity="1"><g transform="translate(294.450266, 219.030919)"><g><path d="M 4.609375 -6.109375 L 4.609375 -5.296875 L 2.984375 -5.296875 L 2.984375 0 L 1.984375 0 L 1.984375 -5.296875 L 0.34375 -5.296875 L 0.34375 -6.109375 Z M 4.609375 -6.109375 "/></g></g></g><path fill="#f9fdff" d="M 150.667969 247.410156 L 229.054688 247.410156 L 229.054688 248.160156 L 150.667969 248.160156 Z M 150.667969 247.410156 " fill-opacity="1" fill-rule="nonzero"/><g fill="#f9fdff" fill-opacity="1"><g transform="translate(150.666529, 246.658359)"><g><path d="M 4.0625 0.195312 C 6.214844 0.195312 7.472656 -0.898438 7.472656 -2.734375 C 7.472656 -4.667969 6.410156 -5.484375 4.242188 -6.078125 C 3.039062 -6.410156 2.335938 -6.699219 2.335938 -7.777344 C 2.335938 -8.511719 2.832031 -9.117188 4.007812 -9.117188 C 5.457031 -9.117188 5.84375 -8.246094 5.871094 -7.292969 L 7.363281 -7.292969 C 7.335938 -9.160156 6.285156 -10.445312 3.980469 -10.445312 C 1.921875 -10.445312 0.761719 -9.394531 0.761719 -7.792969 C 0.761719 -6.039062 1.742188 -5.359375 3.578125 -4.820312 C 5.140625 -4.351562 5.886719 -4.0625 5.886719 -2.75 C 5.886719 -1.753906 5.320312 -1.132812 4.0625 -1.132812 C 2.429688 -1.132812 2.015625 -2.183594 2.015625 -3.109375 L 0.46875 -3.109375 C 0.484375 -1.078125 1.65625 0.195312 4.0625 0.195312 Z M 4.0625 0.195312 "/></g></g></g><g fill="#f9fdff" fill-opacity="1"><g transform="translate(163.398089, 246.658359)"><g><path d="M 3.207031 0 L 4.78125 0 L 4.78125 -3.191406 L 7.792969 -10.265625 L 6.050781 -10.265625 L 4.117188 -5.234375 L 3.992188 -4.820312 L 3.980469 -4.820312 L 3.867188 -5.234375 L 1.90625 -10.265625 L 0.164062 -10.265625 L 3.207031 -3.191406 Z M 3.207031 0 "/></g></g></g><g fill="#f9fdff" fill-opacity="1"><g transform="translate(176.088232, 246.658359)"><g><path d="M 4.0625 0.195312 C 6.214844 0.195312 7.472656 -0.898438 7.472656 -2.734375 C 7.472656 -4.667969 6.410156 -5.484375 4.242188 -6.078125 C 3.039062 -6.410156 2.335938 -6.699219 2.335938 -7.777344 C 2.335938 -8.511719 2.832031 -9.117188 4.007812 -9.117188 C 5.457031 -9.117188 5.84375 -8.246094 5.871094 -7.292969 L 7.363281 -7.292969 C 7.335938 -9.160156 6.285156 -10.445312 3.980469 -10.445312 C 1.921875 -10.445312 0.761719 -9.394531 0.761719 -7.792969 C 0.761719 -6.039062 1.742188 -5.359375 3.578125 -4.820312 C 5.140625 -4.351562 5.886719 -4.0625 5.886719 -2.75 C 5.886719 -1.753906 5.320312 -1.132812 4.0625 -1.132812 C 2.429688 -1.132812 2.015625 -2.183594 2.015625 -3.109375 L 0.46875 -3.109375 C 0.484375 -1.078125 1.65625 0.195312 4.0625 0.195312 Z M 4.0625 0.195312 "/></g></g></g><g fill="#f9fdff" fill-opacity="1"><g transform="translate(188.819792, 246.658359)"><g><path d="M 2.777344 0 L 4.351562 0 L 4.351562 -8.910156 L 7.058594 -8.910156 L 7.058594 -10.265625 L 0.0703125 -10.265625 L 0.0703125 -8.910156 L 2.777344 -8.910156 Z M 2.777344 0 "/></g></g></g><g fill="#f9fdff" fill-opacity="1"><g transform="translate(200.667857, 246.658359)"><g><path d="M 1.148438 0 L 7.183594 0 L 7.183594 -1.355469 L 2.722656 -1.355469 L 2.722656 -4.585938 L 6.632812 -4.585938 L 6.632812 -5.898438 L 2.722656 -5.898438 L 2.722656 -8.910156 L 7.128906 -8.910156 L 7.128906 -10.265625 L 1.148438 -10.265625 Z M 1.148438 0 "/></g></g></g><g fill="#f9fdff" fill-opacity="1"><g transform="translate(212.985281, 246.658359)"><g><path d="M 1.148438 0 L 2.707031 0 L 2.707031 -6.726562 L 2.679688 -7.765625 L 2.695312 -7.765625 L 2.859375 -7.308594 L 5.027344 -1.4375 L 6.328125 -1.4375 L 8.496094 -7.308594 L 8.660156 -7.765625 L 8.691406 -7.765625 L 8.660156 -6.726562 L 8.660156 0 L 10.210938 0 L 10.210938 -10.265625 L 8.152344 -10.265625 L 5.859375 -3.921875 L 5.691406 -3.371094 L 5.664062 -3.371094 L 5.511719 -3.921875 L 3.21875 -10.265625 L 1.148438 -10.265625 Z M 1.148438 0 "/></g></g></g></svg>